PathFileType	4	(X/Y/Z)	./trials/Ivanov/data/jump_js_1.trc
DataRate	CameraRate	NumFrames	NumMarkers	Units	OrigDataRate	OrigDataStartFrame	OrigNumFrames
400	400	6	71	mm	400	1	364
Frame#	Time	r_illiac			r_troch			r_asis			l_illiac			l_troch			l_asis			r_psis			sacrum			l_psis			r_thigh1			r_thigh2			r_thigh3			r_thigh4			rl_knee			rm_knee			r_shank1			r_shank2			r_shank3			r_shank4			r_heel			rl_ankle			rm_ankle			r_metatarsal5			r_metatarsal1			l_thigh1			l_thigh2			l_thigh3			l_thigh4			ll_knee			lm_knee			l_shank1			l_shank2			l_shank3			l_shank4			l_heel			ll_ankle			lm_ankle			l_metatarsal5			l_metatarsal1			back_down			neck			back_right			back_left			head_up			head_front			head_left			head_right			r_shoulder			r_humerus1			r_humerus2			r_humerus3			rl_elbow			rm_elbow			r_radius1			r_radius2			r_radius3			rl_wrist			rm_wrist			r_hand			l_shoulder			l_humerus1			l_humerus2			l_humerus3			ll_elbow			lm_elbow			l_radius1			l_radius2			l_radius3			ll_wrist			lm_wrist			l_hand		
		X1	Y1	Z1	X2	Y2	Z2	X3	Y3	Z3	X4	Y4	Z4	X5	Y5	Z5	X6	Y6	Z6	X7	Y7	Z7	X8	Y8	Z8	X9	Y9	Z9	X10	Y10	Z10	X11	Y11	Z11	X12	Y12	Z12	X13	Y13	Z13	X14	Y14	Z14	X15	Y15	Z15	X16	Y16	Z16	X17	Y17	Z17	X18	Y18	Z18	X19	Y19	Z19	X20	Y20	Z20	X21	Y21	Z21	X22	Y22	Z22	X23	Y23	Z23	X24	Y24	Z24	X25	Y25	Z25	X26	Y26	Z26	X27	Y27	Z27	X28	Y28	Z28	X29	Y29	Z29	X30	Y30	Z30	X31	Y31	Z31	X32	Y32	Z32	X33	Y33	Z33	X34	Y34	Z34	X35	Y35	Z35	X36	Y36	Z36	X37	Y37	Z37	X38	Y38	Z38	X39	Y39	Z39	X40	Y40	Z40	X41	Y41	Z41	X42	Y42	Z42	X43	Y43	Z43	X44	Y44	Z44	X45	Y45	Z45	X46	Y46	Z46	X47	Y47	Z47	X48	Y48	Z48	X49	Y49	Z49	X50	Y50	Z50	X51	Y51	Z51	X52	Y52	Z52	X53	Y53	Z53	X54	Y54	Z54	X55	Y55	Z55	X56	Y56	Z56	X57	Y57	Z57	X58	Y58	Z58	X59	Y59	Z59	X60	Y60	Z60	X61	Y61	Z61	X62	Y62	Z62	X63	Y63	Z63	X64	Y64	Z64	X65	Y65	Z65	X66	Y66	Z66	X67	Y67	Z67	X68	Y68	Z68	X69	Y69	Z69	X70	Y70	Z70	X71	Y71	Z71
1	0.0000	-404.025	733.674	562.938	-467.435	611.405	625.056	-384.162	666.849	533.226	-415.556	734.816	233.335	-459.439	654.058	194.233	-391.813	667.539	274.645	-534.522	776.424	460.393	-505.783	802.445	399.835	-541.059	777.226	347.788	-391.091	524.354	603.763	-357.557	593.452	612.155	-249.561	530.553	626.916	-279.609	469.032	616.240	-102.231	429.983	616.115	-116.918	421.819	481.500	-197.829	349.491	617.888	-136.961	313.469	608.966	-202.285	223.270	602.346	-250.437	257.614	609.978	-405.511	83.642	532.913	-350.906	103.979	576.677	-323.680	98.865	484.245	-196.978	35.454	602.803	-187.267	38.604	509.373	-375.782	547.958	185.247	-337.953	612.121	197.148	-234.020	551.490	173.039	-260.405	498.360	162.793	-131.395	436.209	161.923	-107.335	403.631	288.089	-208.198	328.328	146.713	-144.008	293.483	175.253	-208.011	205.791	183.691	-258.976	232.238	162.957	-417.972	76.543	223.027	-355.018	102.799	185.757	-324.539	104.101	281.105	-206.938	35.690	164.236	-190.915	38.210	240.898	-350.142	866.577	396.613	-41.230	956.617	386.685	-184.723	927.497	484.710	-203.086	924.371	306.838	218.742	1011.120	371.756	234.818	859.076	347.915	140.131	933.627	272.836	175.713	920.920	465.988	29.195	861.427	557.985	-111.498	739.268	651.181	-69.455	841.683	724.927	-145.546	771.929	746.581	-201.882	748.499	777.377	-255.849	838.514	745.524	-278.541	728.202	663.365	-309.255	696.455	786.686	-361.488	684.687	698.286	-450.291	744.375	639.001	-419.834	653.829	662.159	-406.398	697.229	617.322	19.876	879.548	221.594	-118.215	750.949	137.523	-85.870	841.550	47.897	-161.973	772.942	44.353	-232.040	753.516	-8.477	-278.215	848.556	31.155	-283.087	801.747	107.602	-279.170	695.975	46.876	-350.001	727.565	115.841	-436.727	743.488	178.940	-430.702	656.951	139.003	-406.442	701.499	188.568
2	0.0025	-403.988	733.663	562.906	-467.422	611.433	625.034	-384.179	666.854	533.200	-415.554	734.805	233.350	-458.464	653.760	194.937	-391.810	667.557	274.670	-534.508	776.443	460.395	-505.762	802.445	399.826	-541.045	777.245	347.778	-391.108	524.409	603.780	-357.516	593.486	612.142	-249.563	530.561	626.924	-279.616	469.074	616.261	-102.230	429.968	616.116	-116.930	421.826	481.496	-197.848	349.476	617.895	-136.974	313.485	608.962	-202.251	223.281	602.365	-250.526	257.542	609.947	-405.522	83.631	532.908	-350.922	103.966	576.675	-323.685	98.856	484.239	-196.975	35.447	602.808	-187.260	38.636	509.381	-375.791	547.939	185.216	-337.986	612.122	197.140	-234.029	551.491	173.003	-260.429	498.362	162.780	-131.375	436.227	161.871	-107.293	403.649	288.056	-208.210	328.315	146.679	-144.017	293.468	175.241	-208.014	205.822	183.673	-258.999	232.241	162.916	-417.983	76.510	223.037	-354.959	102.878	185.720	-324.536	104.115	281.104	-206.953	35.671	164.239	-190.924	38.209	240.899	-350.147	866.581	396.602	-41.216	956.613	386.671	-184.716	927.519	484.701	-203.063	924.358	306.816	218.758	1011.095	371.761	234.843	859.080	347.937	140.165	933.611	272.850	175.722	920.908	465.978	29.190	861.440	557.983	-111.513	739.247	651.190	-69.446	841.691	724.913	-145.561	771.957	746.600	-201.867	748.521	777.395	-255.830	838.534	745.518	-278.576	728.189	663.359	-309.266	696.497	786.675	-361.519	684.840	698.149	-450.298	744.379	639.005	-419.863	653.816	662.162	-406.398	697.230	617.321	19.896	879.535	221.585	-118.212	750.954	137.508	-85.858	841.545	47.884	-162.009	772.915	44.355	-232.280	753.401	-8.546	-278.206	848.558	31.145	-283.078	801.735	107.595	-279.148	695.988	46.867	-350.004	727.568	115.824	-436.719	743.527	178.920	-430.707	656.974	139.010	-406.464	701.550	188.584
3	0.0050	-404.004	733.688	562.923	-467.420	611.473	625.034	-384.210	666.825	533.145	-415.566	734.812	233.347	-458.228	653.735	195.044	-391.809	667.577	274.694	-534.486	776.472	460.364	-505.754	802.472	399.814	-541.115	777.437	347.652	-391.113	524.427	603.775	-357.542	593.507	612.140	-249.581	530.572	626.924	-279.591	469.050	616.247	-102.215	429.994	616.124	-116.924	421.844	481.505	-197.851	349.462	617.879	-136.971	313.493	608.969	-202.275	223.281	602.371	-250.458	257.620	609.963	-405.510	83.637	532.893	-350.904	103.975	576.677	-323.669	98.836	484.245	-196.967	35.447	602.791	-187.256	38.614	509.376	-375.809	547.980	185.192	-337.968	612.146	197.106	-234.043	551.501	172.976	-260.470	498.354	162.752	-131.405	436.163	161.846	-107.295	403.644	288.000	-208.227	328.330	146.650	-144.030	293.463	175.198	-208.049	205.792	183.665	-258.969	232.291	162.875	-417.971	76.540	223.019	-355.037	102.762	185.747	-324.548	104.081	281.093	-206.946	35.687	164.239	-190.905	38.208	240.891	-350.129	866.594	396.598	-41.196	956.625	386.670	-184.712	927.538	484.703	-203.043	924.369	306.802	218.784	1011.072	371.740	234.867	859.070	347.941	140.172	933.600	272.833	175.746	920.913	465.999	29.190	861.434	557.993	-111.520	739.278	651.191	-69.463	841.721	724.906	-145.521	772.004	746.586	-201.880	748.535	777.389	-255.834	838.563	745.511	-278.555	728.276	663.361	-309.284	696.511	786.672	-361.548	684.799	698.198	-450.317	744.393	638.981	-419.798	653.857	662.160	-406.373	697.344	617.339	19.901	879.521	221.584	-118.186	750.957	137.491	-85.884	841.536	47.936	-162.000	772.915	44.351	-232.316	753.394	-8.554	-278.174	848.595	31.148	-283.048	801.755	107.576	-279.119	696.020	46.844	-350.010	727.605	115.830	-436.722	743.537	178.911	-430.767	656.986	139.092	-406.456	701.518	188.580
4	0.0075	-403.987	733.721	562.933	-467.450	611.484	625.055	-384.201	666.836	533.120	-415.543	734.832	233.311	-457.966	653.627	195.205	-391.808	667.599	274.718	-534.483	776.488	460.360	-505.733	802.491	399.824	-541.110	777.484	347.630	-391.080	524.439	603.762	-357.489	593.503	612.123	-249.572	530.593	626.931	-279.616	469.094	616.270	-102.258	430.033	616.146	-116.935	421.811	481.528	-197.860	349.492	617.894	-136.969	313.481	608.969	-202.269	223.276	602.368	-250.450	257.674	609.963	-405.522	83.642	532.884	-350.896	103.951	576.657	-323.681	98.825	484.246	-196.974	35.414	602.795	-187.258	38.585	509.377	-375.813	548.023	185.169	-338.007	612.123	197.095	-234.039	551.520	172.925	-260.469	498.365	162.731	-131.416	436.180	161.803	-107.294	403.641	287.998	-208.239	328.331	146.637	-144.059	293.456	175.200	-208.063	205.809	183.647	-258.972	232.302	162.858	-417.962	76.572	223.002	-355.011	102.769	185.726	-324.550	104.102	281.091	-206.940	35.699	164.221	-190.916	38.191	240.896	-350.121	866.615	396.599	-41.173	956.614	386.651	-184.699	927.544	484.692	-203.027	924.369	306.795	218.804	1011.050	371.743	234.875	859.048	347.947	140.207	933.583	272.850	175.763	920.895	465.987	29.224	861.453	557.975	-111.511	739.292	651.208	-69.457	841.753	724.906	-145.547	771.995	746.582	-201.888	748.560	777.383	-255.832	838.581	745.507	-278.556	728.260	663.365	-309.292	696.533	786.684	-361.511	684.799	698.189	-450.307	744.423	638.994	-419.836	653.888	662.166	-406.374	697.312	617.311	19.920	879.524	221.575	-118.157	750.891	137.441	-85.842	841.537	47.875	-161.991	772.920	44.346	-232.293	753.423	-8.548	-278.164	848.588	31.144	-283.037	801.756	107.580	-279.144	696.009	46.838	-349.982	727.643	115.823	-436.714	743.556	178.907	-430.761	656.968	139.099	-406.442	701.529	188.552
5	0.0100	-403.967	733.738	562.945	-467.423	611.493	625.039	-384.188	666.934	533.181	-415.495	734.853	233.327	-457.910	653.646	195.221	-391.807	667.624	274.740	-534.478	776.521	460.361	-505.713	802.523	399.782	-541.090	777.506	347.625	-391.101	524.477	603.779	-357.551	593.549	612.151	-249.567	530.613	626.930	-279.618	469.096	616.247	-102.269	429.982	616.127	-116.949	421.879	481.522	-197.861	349.484	617.882	-137.000	313.482	608.969	-202.269	223.293	602.365	-250.473	257.706	609.935	-405.514	83.647	532.895	-350.902	103.967	576.682	-323.682	98.831	484.243	-196.987	35.438	602.799	-187.267	38.611	509.374	-375.857	548.000	185.188	-338.006	612.140	197.081	-234.108	551.521	172.900	-260.510	498.362	162.696	-131.430	436.239	161.788	-107.260	403.734	287.937	-208.286	328.320	146.607	-144.069	293.465	175.153	-208.060	205.799	183.625	-258.993	232.308	162.830	-417.973	76.562	223.030	-354.969	102.890	185.699	-324.569	104.092	281.105	-206.948	35.687	164.229	-190.938	38.185	240.882	-350.105	866.618	396.584	-41.169	956.618	386.654	-184.690	927.551	484.682	-203.012	924.376	306.777	218.825	1011.034	371.744	234.899	859.042	347.949	140.248	933.563	272.858	175.767	920.900	465.995	29.228	861.449	557.982	-111.516	739.320	651.212	-69.461	841.770	724.898	-145.534	772.043	746.577	-201.933	748.606	777.382	-255.836	838.603	745.495	-278.569	728.335	663.358	-309.285	696.564	786.660	-361.564	684.861	698.158	-450.291	744.463	638.974	-419.801	653.909	662.142	-406.412	697.331	617.300	19.928	879.508	221.567	-118.162	750.885	137.420	-85.824	841.531	47.858	-161.981	772.929	44.347	-232.281	753.430	-8.573	-278.153	848.606	31.147	-283.047	801.784	107.567	-279.124	696.033	46.816	-350.000	727.651	115.797	-436.701	743.567	178.889	-430.789	656.977	139.047	-406.436	701.571	188.561
6	0.0125	-403.947	733.777	562.919	-467.421	611.551	625.055	-384.166	667.038	533.212	-415.519	734.847	233.314	-457.736	653.571	195.277	-391.807	667.650	274.760	-534.454	776.545	460.334	-505.718	802.547	399.794	-540.997	777.355	347.747	-391.112	524.511	603.754	-357.537	593.590	612.122	-249.553	530.635	626.943	-279.642	469.122	616.244	-102.284	429.991	616.127	-116.971	421.867	481.515	-197.870	349.503	617.899	-137.014	313.483	608.986	-202.295	223.293	602.349	-250.464	257.699	609.958	-405.526	83.641	532.888	-350.885	103.948	576.670	-323.679	98.827	484.233	-196.991	35.433	602.806	-187.268	38.624	509.380	-375.875	548.007	185.188	-338.029	612.169	197.049	-234.149	551.522	172.865	-260.538	498.369	162.674	-131.452	436.172	161.737	-107.308	403.714	287.919	-208.306	328.323	146.594	-144.085	293.506	175.134	-208.073	205.816	183.596	-259.001	232.321	162.807	-417.981	76.533	223.029	-355.045	102.771	185.736	-324.557	104.109	281.077	-206.957	35.692	164.213	-190.919	38.220	240.887	-350.081	866.630	396.581	-41.142	956.626	386.643	-184.677	927.579	484.671	-202.992	924.363	306.758	218.835	1011.024	371.757	234.899	859.037	347.956	140.278	933.551	272.857	175.781	920.869	465.980	29.226	861.463	557.973	-111.520	739.314	651.225	-69.479	841.790	724.893	-145.563	772.051	746.547	-201.931	748.633	777.370	-255.846	838.637	745.487	-278.546	728.299	663.359	-309.305	696.600	786.671	-361.531	684.936	698.180	-450.315	744.490	638.959	-419.770	653.930	662.142	-406.392	697.419	617.338	19.947	879.499	221.551	-118.146	750.887	137.406	-85.818	841.554	47.850	-161.970	772.944	44.329	-232.279	753.441	-8.579	-278.148	848.618	31.130	-283.025	801.785	107.578	-279.132	696.035	46.808	-349.999	727.637	115.798	-436.696	743.587	178.885	-430.652	656.986	138.930	-406.439	701.593	188.539
